<?xml version="1.0" encoding="utf-8"?>
<svg xmlns="http://www.w3.org/2000/svg" xmlns:xlink="http://www.w3.org/1999/xlink" version="1.1" style="width:0;height:0;position:absolute;overflow:hidden;">
  <defs>
<symbol viewBox="0 0 1024 1024" aria-labelledby="afsi-ant-appstore-o-title" id="si-ant-appstore-o"><title id="afsi-ant-appstore-o-title">icon appstore-o</title><path d="M359 640q10 0 17.5 7.5T384 665v270q0 10-7.5 17.5T359 960H89q-10 0-17.5-7.5T64 935V665q0-10 7.5-17.5T89 640h270zm0-64H89q-37 0-63 26T0 665v270q0 37 26 63t63 26h270q37 0 63-26t26-63V665q0-37-26-63t-63-26zm0-512q10 0 17.5 7.5T384 89v270q0 10-7.5 17.5T359 384H89q-10 0-17.5-7.5T64 359V89q0-10 7.5-17.5T89 64h270zm0-64H89Q52 0 26 26T0 89v270q0 37 26 63t63 26h270q37 0 63-26t26-63V89q0-37-26-63T359 0zm576 640q10 0 17.5 7.5T960 665v270q0 10-7.5 17.5T935 960H665q-10 0-17.5-7.5T640 935V665q0-10 7.5-17.5T665 640h270zm0-64H665q-37 0-63 26t-26 63v270q0 37 26 63t63 26h270q37 0 63-26t26-63V665q0-37-26-63t-63-26zm0-512q10 0 17.5 7.5T960 89v270q0 10-7.5 17.5T935 384H665q-10 0-17.5-7.5T640 359V89q0-10 7.5-17.5T665 64h270zm0-64H665q-37 0-63 26t-26 63v270q0 37 26 63t63 26h270q37 0 63-26t26-63V89q0-37-26-63T935 0z"/></symbol>
<symbol viewBox="0 0 1024 1024" aria-labelledby="aesi-ant-appstore-title" id="si-ant-appstore"><title id="aesi-ant-appstore-title">icon appstore</title><path d="M359 1024H89q-37 0-63-26T0 935V665q0-37 26-63t63-26h270q37 0 63 26t26 63v270q0 37-26 63t-63 26zm0-576H89q-37 0-63-26T0 359V89q0-37 26-63T89 0h270q37 0 63 26t26 63v270q0 37-26 63t-63 26zm576 576H665q-37 0-63-26t-26-63V665q0-37 26-63t63-26h270q37 0 63 26t26 63v270q0 37-26 63t-63 26zm0-576H665q-37 0-63-26t-26-63V89q0-37 26-63t63-26h270q37 0 63 26t26 63v270q0 37-26 63t-63 26z"/></symbol>
<symbol viewBox="0 0 1792 1408" aria-labelledby="adsi-awesome-align-center-title" id="si-awesome-align-center"><title id="adsi-awesome-align-center-title">icon align-center</title><path d="M1792 1216v128q0 26-19 45t-45 19H64q-26 0-45-19t-19-45v-128q0-26 19-45t45-19h1664q26 0 45 19t19 45zm-384-384v128q0 26-19 45t-45 19H448q-26 0-45-19t-19-45V832q0-26 19-45t45-19h896q26 0 45 19t19 45zm256-384v128q0 26-19 45t-45 19H192q-26 0-45-19t-19-45V448q0-26 19-45t45-19h1408q26 0 45 19t19 45zM1280 64v128q0 26-19 45t-45 19H576q-26 0-45-19t-19-45V64q0-26 19-45t45-19h640q26 0 45 19t19 45z"/></symbol>
<symbol viewBox="0 0 1792 1408" aria-labelledby="aesi-awesome-align-justify-title" id="si-awesome-align-justify"><title id="aesi-awesome-align-justify-title">icon align-justify</title><path d="M1792 1216v128q0 26-19 45t-45 19H64q-26 0-45-19t-19-45v-128q0-26 19-45t45-19h1664q26 0 45 19t19 45zm0-384v128q0 26-19 45t-45 19H64q-26 0-45-19T0 960V832q0-26 19-45t45-19h1664q26 0 45 19t19 45zm0-384v128q0 26-19 45t-45 19H64q-26 0-45-19T0 576V448q0-26 19-45t45-19h1664q26 0 45 19t19 45zm0-384v128q0 26-19 45t-45 19H64q-26 0-45-19T0 192V64q0-26 19-45T64 0h1664q26 0 45 19t19 45z"/></symbol>
<symbol viewBox="0 0 1792 1408" aria-labelledby="afsi-awesome-align-left-title" id="si-awesome-align-left"><title id="afsi-awesome-align-left-title">icon align-left</title><path d="M1792 1216v128q0 26-19 45t-45 19H64q-26 0-45-19t-19-45v-128q0-26 19-45t45-19h1664q26 0 45 19t19 45zm-384-384v128q0 26-19 45t-45 19H64q-26 0-45-19T0 960V832q0-26 19-45t45-19h1280q26 0 45 19t19 45zm256-384v128q0 26-19 45t-45 19H64q-26 0-45-19T0 576V448q0-26 19-45t45-19h1536q26 0 45 19t19 45zM1280 64v128q0 26-19 45t-45 19H64q-26 0-45-19T0 192V64q0-26 19-45T64 0h1152q26 0 45 19t19 45z"/></symbol>
<symbol viewBox="0 0 256 255" preserveAspectRatio="xMidYMid" aria-labelledby="aaisi-logos-alfresco-title" id="si-logos-alfresco"><title id="aaisi-logos-alfresco-title">logo of alfresco</title><path d="M88.957 166.908l32.3-32.302-48.504.002h-.116c-26.878 0-48.667 21.79-48.667 48.665 0 26.88 21.787 48.667 48.665 48.667 2.041 0 4.05-.14 6.025-.385-10.622-20.925-7.198-47.154 10.297-64.647" fill="#87C040"/><path d="M128.336 183.213v-45.678l-34.295 34.3-.083.08c-19.006 19.006-19.006 49.82 0 68.826 19.006 19.006 49.82 19.006 68.825 0 1.443-1.443 2.738-2.975 3.963-4.541-22.297-7.294-38.408-28.252-38.41-52.987" fill="#87C040"/><path d="M167.714 166.898l-32.3-32.3v48.62c0 26.88 21.79 48.666 48.667 48.666 26.878 0 48.667-21.787 48.667-48.665 0-2.041-.14-4.05-.385-6.025-20.925 10.625-47.154 7.199-64.65-10.296" fill="#87C040"/><path d="M241.546 93.073c-1.442-1.442-2.972-2.738-4.539-3.963-7.293 22.296-28.253 38.408-52.986 38.408h-45.676l34.376 34.378c19.006 19.006 49.822 19.006 68.825 0 19.006-19.005 19.006-49.819 0-68.823" fill="#87C040"/><path d="M184.027 23.108c-2.041 0-4.05.139-6.025.384 10.622 20.927 7.198 47.154-10.297 64.648l-32.297 32.3h48.62c26.875 0 48.664-21.79 48.664-48.667.002-26.878-21.787-48.665-48.665-48.665" fill="#ED9A2D"/><path d="M162.704 14.306c-19.006-19.004-49.82-19.004-68.825.002-1.44 1.442-2.736 2.972-3.96 4.54 22.294 7.294 38.407 28.253 38.407 52.985v45.678l34.295-34.297.083-.081c19.006-19.006 19.006-49.82 0-68.827" fill="#5698C6"/><path d="M88.996 88.174l1.384 1.444 30.835 30.834h.033V71.83c0-26.878-21.79-48.667-48.667-48.667-26.878 0-48.667 21.787-48.665 48.665 0 2.037.139 4.04.381 6.01 20.94-10.615 47.202-7.16 64.699 10.337" fill="#5698C6"/><path d="M19.798 165.515a56.105 56.105 0 0 1 1.241-3.345c.056-.139.106-.28.164-.415a54.866 54.866 0 0 1 1.606-3.467c.124-.25.253-.497.384-.748a55.713 55.713 0 0 1 1.863-3.316c.07-.116.147-.226.217-.338a54.642 54.642 0 0 1 1.976-2.954c.14-.199.28-.4.425-.597a56.745 56.745 0 0 1 2.313-2.939c.163-.194.33-.383.497-.572a55.447 55.447 0 0 1 2.431-2.646c.075-.075.143-.154.218-.228a55.476 55.476 0 0 1 2.775-2.589 57.482 57.482 0 0 1 3.571-2.895c.133-.098.272-.19.404-.284a56.412 56.412 0 0 1 2.896-1.97c.195-.124.387-.252.584-.375a56.323 56.323 0 0 1 3.267-1.867c.234-.122.47-.24.706-.36a55.306 55.306 0 0 1 3.38-1.599c.057-.022.11-.05.167-.074a55.697 55.697 0 0 1 3.63-1.376 57.986 57.986 0 0 1 4.498-1.347c.191-.046.388-.088.579-.131 1.16-.28 2.333-.52 3.519-.726.222-.037.441-.083.663-.116a55.019 55.019 0 0 1 3.905-.478c.284-.025.57-.044.854-.067a57.37 57.37 0 0 1 4.11-.166l45.678-.002L83.941 93.15c-19.006-19.004-49.822-19.006-68.825 0-19.006 19.006-19.006 49.82 0 68.825a49.392 49.392 0 0 0 4.514 3.994c.052-.153.116-.3.168-.454" fill="#5698C6"/><path d="M84.055 93.15l27.22 27.22H74.688l-2.075.043c-22.28 0-41.063-14.972-46.837-35.404 18.535-10.394 42.429-7.706 58.197 8.06l.08.08M121.23 71.819v38.494l-25.871-25.87-1.497-1.436c-15.756-15.754-18.45-39.625-8.085-58.154 20.457 5.758 35.452 24.554 35.452 46.85v.116M162.853 83.096l-27.22 27.221V73.732l-.043-2.075c0-22.28 14.973-41.065 35.405-46.837 10.394 18.535 7.706 42.428-8.06 58.195l-.082.08" fill="#446BA6"/><path d="M183.996 120.338h-38.494l25.87-25.87 1.436-1.496c15.754-15.756 39.624-18.45 58.154-8.086-5.758 20.457-24.555 35.452-46.85 35.452h-.116" fill="#FFF101"/><path d="M172.628 161.704l-27.22-27.22h36.586l2.075-.043c22.28.002 41.062 14.974 46.837 35.406-18.538 10.392-42.429 7.706-58.197-8.063l-.081-.08M135.526 182.994v-38.495l25.87 25.87 1.499 1.437c15.754 15.756 18.448 39.622 8.083 58.153-20.457-5.758-35.452-24.552-35.452-46.851v-.114M94.159 171.947l27.22-27.222v36.586l.043 2.074c0 22.28-14.973 41.065-35.404 46.84-10.395-18.54-7.706-42.431 8.06-58.198l.08-.08M72.805 134.685h38.494l-25.87 25.87-1.436 1.497c-15.756 15.756-39.625 18.45-58.156 8.085 5.76-20.459 24.554-35.452 46.852-35.452h.116" fill="#45AB47"/></symbol>
<symbol viewBox="0 0 256 257" preserveAspectRatio="xMidYMid" aria-labelledby="aglsi-logos-component-title" id="si-logos-component"><title id="aglsi-logos-component-title">logo of component</title><path d="M214.57 131.72c0 17.483-5.186 33.736-14.018 47.405l29.51 26.24c16.16-21.421 25.859-47.992 25.859-76.896 0-28.742-9.593-55.181-25.597-76.546l-32.262 28.78c10.342 14.374 16.509 31.956 16.509 51.018" fill="#7A797A"/><path d="M196.102 185.36c-16.016 20.579-40.95 33.873-69.044 33.873-48.334 0-87.512-39.184-87.512-87.512 0-48.335 39.178-87.513 87.512-87.513 26.527 0 50.245 11.847 66.292 30.49l32.28-28.792C202.164 18.169 167.142.518 127.97.518 57.303.518.018 57.802.018 128.468c0 70.667 57.285 127.952 127.952 127.952 39.022 0 73.9-17.52 97.367-45.064l-29.235-25.996" fill="#343334"/><path d="M162.491 132.626c0 19.623-15.91 35.533-35.533 35.533-19.63 0-35.533-15.91-35.533-35.533 0-19.63 15.904-35.533 35.533-35.533 19.624 0 35.533 15.903 35.533 35.533" fill="#474547"/></symbol>
<symbol viewBox="0 0 256 215" aria-labelledby="aipsi-logos-docker-title" id="si-logos-docker"><title id="aipsi-logos-docker-title">logo of docker</title><g fill="none" fill-rule="evenodd"><path d="M38.617 173.984v-16.362c0-2.15 1.344-3.877 3.57-3.877h.616c2.225 0 3.563 1.729 3.563 3.877v34.447c0 8.4-4.15 15.084-11.382 19.342a21.374 21.374 0 0 1-10.945 2.985h-1.537c-8.402 0-15.077-4.153-19.342-11.38a21.314 21.314 0 0 1-2.984-10.947v-1.535c0-8.403 4.152-15.083 11.378-19.349a21.298 21.298 0 0 1 10.948-2.985h1.537c5.686 0 10.51 2.204 14.578 5.784zM7.924 191.3c0 6.068 2.941 10.63 8.258 13.54 2.15 1.176 4.484 1.808 6.937 1.808 5.956 0 10.374-2.81 13.421-7.857 1.417-2.348 2.077-4.917 2.077-7.648 0-5.26-2.49-9.365-6.729-12.414-2.57-1.848-5.463-2.775-8.618-2.775-6.492 0-11.164 3.28-13.968 9.106-.946 1.97-1.378 4.061-1.378 6.24zm65.324-23.1h1.074c8.978 0 15.806 4.355 20.133 12.192 1.73 3.135 2.656 6.557 2.656 10.142v1.535c0 8.4-4.142 15.093-11.385 19.343-3.353 1.967-7.057 2.984-10.943 2.984h-1.535c-8.402 0-15.079-4.153-19.342-11.38a21.316 21.316 0 0 1-2.987-10.947v-1.535c0-8.404 4.169-15.062 11.377-19.347 3.351-1.991 7.058-2.987 10.952-2.987zm-14.58 23.1c0 5.89 2.89 10.223 7.865 13.27 2.336 1.43 4.909 2.078 7.638 2.078 5.82 0 10.122-2.951 13.116-7.863 1.428-2.342 2.074-4.915 2.074-7.642 0-5.477-2.638-9.661-7.148-12.693-2.471-1.663-5.222-2.496-8.198-2.496-6.492 0-11.164 3.28-13.967 9.106-.948 1.97-1.38 4.061-1.38 6.24zm70.656-14.727c-1.17-.548-3.36-.73-4.624-.778-6.474-.244-11.158 3.402-13.906 9.113-.949 1.97-1.382 4.055-1.382 6.235 0 6.637 3.485 11.284 9.409 14.117 2.164 1.034 4.958 1.23 7.323 1.23 2.08 0 5.02-1.274 6.866-2.151l.32-.152h1.433l.158.032c1.762.367 3.092 1.484 3.092 3.38v.767c0 4.718-8.622 5.798-11.912 6.028-11.61.803-20.293-5.573-23.603-16.647-.575-1.923-.834-3.833-.834-5.837v-1.533c0-8.403 4.17-15.059 11.377-19.34 3.351-1.99 7.057-2.99 10.95-2.99h1.536c4.13 0 7.934 1.173 11.344 3.502l.28.194.177.292c.368.61.685 1.316.685 2.042v.767c0 1.978-1.48 3.042-3.266 3.386l-.148.026h-.458c-1.156 0-3.785-1.197-4.817-1.683zm25.134 5.247c3.01-3.014 6.03-6.022 9.085-8.986.851-.827 4.074-4.327 5.343-4.327h1.388l.158.033c1.768.367 3.092 1.486 3.092 3.386v.766c0 1.296-1.518 2.802-2.355 3.689-1.78 1.887-3.654 3.712-5.476 5.56l-9.362 9.504c4.031 4.04 8.058 8.083 12.056 12.154a313.304 313.304 0 0 1 3.301 3.396c.385.405.953.909 1.276 1.47.347.526.56 1.119.56 1.752v.8l-.045.185c-.435 1.768-1.557 3.194-3.516 3.194h-.617c-1.282 0-2.73-1.45-3.608-2.279-1.81-1.706-3.557-3.5-5.331-5.243l-5.949-5.84v9.334c0 2.15-1.346 3.878-3.569 3.878h-.61c-2.226 0-3.57-1.728-3.57-3.878v-52.596c0-2.15 1.345-3.87 3.57-3.87h.61c2.223 0 3.569 1.72 3.569 3.87v24.048zm96.577-13.313h.77c2.324 0 3.875 1.566 3.875 3.877 0 3.208-3.067 4.029-5.72 4.029-3.48 0-6.803 2.107-9.202 4.47-2.991 2.949-4.3 6.726-4.3 10.878v18.759c0 2.15-1.343 3.876-3.57 3.876h-.612c-2.227 0-3.569-1.725-3.569-3.876v-19.836c0-7.617 3.708-13.835 9.89-18.196 3.691-2.605 7.919-3.98 12.438-3.98zm-55.074 37.176c2.82.985 6.035.844 8.928.34 1.48-.629 5.264-2.28 6.656-2.038l.217.037.2.098c.85.412 1.661.995 2.095 1.86 1.014 2.027.527 4.065-1.465 5.216l-.663.383c-7.35 4.242-15.168 3.654-22.495-.308-3.503-1.894-6.183-4.705-8.16-8.132l-.462-.801c-4.719-8.172-4.082-16.768 1.24-24.539 1.837-2.686 4.238-4.761 7.045-6.384l1.062-.613c6.922-3.996 14.341-3.722 21.45-.215 3.823 1.886 6.92 4.697 9.054 8.394l.384.666c1.55 2.686-.458 5.026-2.531 6.626-2.406 1.856-4.835 4.09-7.141 6.08-5.142 4.439-10.276 8.888-15.414 13.33zm-6.655-4.674c5.75-4.93 11.502-9.865 17.237-14.816 1.96-1.69 4.109-3.444 6.053-5.221-1.56-1.966-4.166-3.383-6.38-4.228-4.47-1.703-8.877-1.131-12.976 1.235-5.365 3.098-7.65 8.031-7.45 14.17.08 2.418.73 4.748 2.013 6.805.452.725.957 1.406 1.503 2.055zM147.488 45.732h22.866v23.375h11.561c5.34 0 10.831-.951 15.887-2.664 2.485-.843 5.273-2.015 7.724-3.49-3.228-4.214-4.876-9.535-5.36-14.78-.66-7.135.78-16.421 5.608-22.005l2.404-2.78 2.864 2.303c7.211 5.793 13.276 13.889 14.345 23.118 8.683-2.554 18.878-1.95 26.531 2.467l3.14 1.812-1.652 3.226C246.933 68.946 233.4 72.86 220.17 72.167c-19.797 49.309-62.898 72.653-115.157 72.653-27 0-51.77-10.093-65.876-34.047l-.231-.39-2.055-4.182c-4.768-10.544-6.352-22.095-5.278-33.637l.323-3.457H51.45V45.732h22.865V22.866h45.733V0h27.44v45.732" fill="#364548"/><path d="M221.57 54.38c1.533-11.916-7.384-21.275-12.914-25.719-6.373 7.368-7.363 26.678 2.635 34.808-5.58 4.956-17.337 9.448-29.376 9.448H35.37c-1.17 12.567 1.036 24.14 6.075 34.045l1.667 3.05a56.536 56.536 0 0 0 3.455 5.184c6.025.387 11.58.52 16.662.408h.002c9.987-.22 18.136-1.4 24.312-3.54a1.761 1.761 0 0 1 1.153 3.326c-.822.286-1.678.552-2.562.805h-.003c-4.863 1.389-10.078 2.323-16.806 2.738.4.007-.416.06-.418.06-.229.015-.517.048-.747.06-2.648.149-5.506.18-8.428.18-3.196 0-6.343-.06-9.862-.24l-.09.06c12.21 13.724 31.302 21.955 55.234 21.955 50.648 0 93.608-22.452 112.632-72.857 13.496 1.385 26.467-2.057 32.367-13.575-9.398-5.423-21.484-3.694-28.443-.196" fill="#22A0C8"/><path d="M221.57 54.38c1.533-11.916-7.384-21.275-12.914-25.719-6.373 7.368-7.363 26.678 2.635 34.808-5.58 4.956-17.337 9.448-29.376 9.448H44.048c-.598 19.246 6.544 33.855 19.18 42.687h.003c9.987-.22 18.136-1.4 24.312-3.54a1.761 1.761 0 0 1 1.153 3.326c-.822.286-1.678.552-2.562.805h-.003c-4.863 1.389-10.526 2.443-17.254 2.858-.002 0-.163-.155-.165-.155 17.237 8.842 42.23 8.81 70.885-2.197 32.13-12.344 62.029-35.86 82.89-62.757-.314.142-.62.287-.917.436" fill="#37B1D9"/><path d="M35.645 88.186c.91 6.732 2.88 13.035 5.8 18.776l1.667 3.05a56.432 56.432 0 0 0 3.455 5.184c6.026.387 11.581.52 16.664.408 9.987-.22 18.136-1.4 24.312-3.54a1.761 1.761 0 0 1 1.153 3.326c-.822.286-1.678.552-2.562.805h-.003c-4.863 1.389-10.496 2.383-17.224 2.799-.231.014-.634.017-.867.03-2.646.148-5.475.239-8.398.239-3.195 0-6.463-.061-9.98-.24 12.21 13.724 31.42 21.985 55.352 21.985 43.36 0 81.084-16.458 102.979-52.822H35.645" fill="#1B81A5"/><path d="M45.367 88.186c2.592 11.82 8.821 21.099 17.864 27.418 9.987-.22 18.136-1.4 24.312-3.54a1.761 1.761 0 0 1 1.153 3.326c-.822.286-1.678.552-2.562.805h-.003c-4.863 1.389-10.615 2.383-17.344 2.799 17.236 8.84 42.157 8.713 70.81-2.293 17.334-6.66 34.017-16.574 48.984-28.515H45.367" fill="#1D91B4"/><path d="M55.26 49.543h19.818v19.818H55.26V49.543zm1.651 1.652h1.564V67.71h-1.564V51.195zm2.94 0h1.627V67.71h-1.626V51.195zm3.002 0h1.627V67.71h-1.627V51.195zm3.004 0h1.626V67.71h-1.626V51.195zm3.003 0h1.626V67.71H68.86V51.195zm3.002 0h1.565V67.71h-1.565V51.195zM78.126 26.677h19.819v19.817h-19.82V26.677zm1.652 1.652h1.563v16.514h-1.563V28.329zm2.94 0h1.626v16.514h-1.625V28.329zm3.002 0h1.626v16.514H85.72V28.329zm3.003 0h1.626v16.514h-1.626V28.329zm3.003 0h1.627v16.514h-1.627V28.329zm3.002 0h1.566v16.514h-1.566V28.329z" fill="#23A3C2"/><path d="M78.126 49.543h19.819v19.818h-19.82V49.543zm1.652 1.652h1.563V67.71h-1.563V51.195zm2.94 0h1.626V67.71h-1.625V51.195zm3.002 0h1.626V67.71H85.72V51.195zm3.003 0h1.626V67.71h-1.626V51.195zm3.003 0h1.627V67.71h-1.627V51.195zm3.002 0h1.566V67.71h-1.566V51.195z" fill="#34BBDE"/><path d="M100.993 49.543h19.818v19.818h-19.818V49.543zm1.651 1.652h1.563V67.71h-1.563V51.195zm2.94 0h1.626V67.71h-1.626V51.195zm3.003 0h1.626V67.71h-1.626V51.195zm3.003 0h1.626V67.71h-1.626V51.195zm3.002 0h1.628V67.71h-1.628V51.195zm3.003 0h1.564V67.71h-1.564V51.195z" fill="#23A3C2"/><path d="M100.993 26.677h19.818v19.817h-19.818V26.677zm1.651 1.652h1.563v16.514h-1.563V28.329zm2.94 0h1.626v16.514h-1.626V28.329zm3.003 0h1.626v16.514h-1.626V28.329zm3.003 0h1.626v16.514h-1.626V28.329zm3.002 0h1.628v16.514h-1.628V28.329zm3.003 0h1.564v16.514h-1.564V28.329zM123.859 49.543h19.818v19.818h-19.818V49.543zm1.652 1.652h1.563V67.71h-1.563V51.195zm2.94 0h1.626V67.71h-1.626V51.195zm3.002 0h1.626V67.71h-1.626V51.195zm3.003 0h1.627V67.71h-1.627V51.195zm3.003 0h1.627V67.71h-1.627V51.195zm3.003 0h1.564V67.71h-1.564V51.195z" fill="#34BBDE"/><path d="M123.859 26.677h19.818v19.817h-19.818V26.677zm1.652 1.652h1.563v16.514h-1.563V28.329zm2.94 0h1.626v16.514h-1.626V28.329zm3.002 0h1.626v16.514h-1.626V28.329zm3.003 0h1.627v16.514h-1.627V28.329zm3.003 0h1.627v16.514h-1.627V28.329zm3.003 0h1.564v16.514h-1.564V28.329z" fill="#23A3C2"/><path d="M123.859 3.81h19.818V23.63h-19.818V3.81zm1.652 1.651h1.563v16.516h-1.563V5.46zm2.94 0h1.626v16.516h-1.626V5.46zm3.002 0h1.626v16.516h-1.626V5.46zm3.003 0h1.627v16.516h-1.627V5.46zm3.003 0h1.627v16.516h-1.627V5.46zm3.003 0h1.564v16.516h-1.564V5.46z" fill="#34BBDE"/><path d="M146.725 49.543h19.818v19.818h-19.818V49.543zm1.65 1.652h1.565V67.71h-1.564V51.195zm2.94 0h1.627V67.71h-1.626V51.195zm3.004 0h1.627V67.71h-1.627V51.195zm3.002 0h1.627V67.71h-1.627V51.195zm3.004 0h1.626V67.71h-1.626V51.195zm3.002 0h1.564V67.71h-1.564V51.195z" fill="#23A3C2"/><path d="M96.704 101.492a5.468 5.468 0 1 1-.002 10.935 5.468 5.468 0 0 1 .002-10.935" fill="#D3ECEC"/><path d="M96.704 103.043c.5 0 .977.094 1.417.265a1.598 1.598 0 0 0 .798 2.98c.605 0 1.13-.335 1.402-.831a3.915 3.915 0 1 1-3.617-2.414M0 90.162h254.327c-5.537-1.404-17.52-3.302-15.544-10.56-10.07 11.652-34.353 8.175-40.482 2.43-6.824 9.898-46.554 6.135-49.325-1.576-8.556 10.041-35.067 10.041-43.623 0-2.773 7.711-42.502 11.474-49.327 1.575-6.128 5.746-30.41 9.223-40.48-2.428C17.522 86.86 5.539 88.758 0 90.163" fill="#364548"/><path d="M111.237 140.89c-13.54-6.425-20.971-15.16-25.106-24.694-5.03 1.435-11.075 2.353-18.1 2.747-2.646.148-5.43.224-8.35.224-3.368 0-6.917-.1-10.643-.297 12.417 12.41 27.692 21.964 55.976 22.138 2.088 0 4.16-.04 6.223-.118" fill="#BDD9D7"/><path d="M91.16 124.994c-1.873-2.543-3.69-5.739-5.026-8.8-5.03 1.437-11.077 2.355-18.103 2.75 4.826 2.619 11.727 5.046 23.13 6.05" fill="#D3ECEC"/></g></symbol>
<symbol viewBox="0 0 737.2800903320312 286.72216796875" aria-labelledby="aqsi-payment-cash-on-pickup-title" id="si-payment-cash-on-pickup"><title id="aqsi-payment-cash-on-pickup-title">logo of cash-on-pickup</title><path d="M65.331 21.064c-7.352 0-13.968 2.202-19.845 6.615S34.887 38.574 31.324 47.155c-3.564 8.571-5.345 17.787-5.345 27.638 0 9.093 1.905 15.841 5.724 20.245 3.82 4.413 9.902 6.615 18.258 6.615 8.131 0 17.541-2.099 28.242-6.288v21.227c-11.09 4.188-22.23 6.287-33.423 6.287-14.15 0-25.149-4.066-33.004-12.206S0 91.013 0 76.093C0 61.83 2.898 48.701 8.684 36.7 14.48 24.698 22.221 15.585 31.909 9.35S52.749 0 65.332 0c6.963 0 13.148.615 18.544 1.833s11.192 3.471 17.377 6.738l-9.86 20.41c-5.91-3.217-10.774-5.336-14.624-6.37-3.84-1.025-7.649-1.547-11.438-1.547zm103.691 71.773h-39.515l-14.366 28.416H88.404l63.99-119.859h31.161l12.278 119.86h-24.812l-1.997-28.417zm-1.25-21.227l-2.17-28.58c-.554-7.127-.84-14.019-.84-20.654v-2.939c-2.447 6.533-5.488 13.445-9.103 20.736L139.951 71.61h27.822zm121.652 14.366c0 11.376-4.116 20.367-12.36 26.982s-19.415 9.923-33.505 9.923c-12.308 0-22.22-2.447-29.737-7.352V93.154c10.752 5.878 20.716 8.817 29.911 8.817 6.236 0 11.111-1.157 14.623-3.47s5.264-5.49 5.264-9.514c0-2.345-.379-4.393-1.127-6.164s-1.822-3.42-3.216-4.936c-1.392-1.526-4.844-4.3-10.363-8.325-7.69-5.386-13.087-10.72-16.21-16.005s-4.68-10.967-4.68-17.06c0-7.024 1.731-13.29 5.181-18.82s8.366-9.82 14.745-12.903S261.662.166 269.966.166c12.083 0 23.142 2.693 33.168 8.08l-9.103 19.026c-8.683-4.024-16.712-6.04-24.064-6.04-4.618 0-8.407 1.228-11.366 3.675-2.949 2.447-4.423 5.683-4.423 9.718 0 3.318.921 6.216 2.755 8.694s5.96 5.755 12.36 9.84c6.738 4.352 11.776 9.155 15.125 14.408 3.338 5.253 5.007 11.387 5.007 18.411zm110.714 35.277h-25.559l11.192-51.517h-39.353l-11.192 51.517h-25.477L335.564 1.886h25.56l-10.108 46.786h39.352l10.107-46.786h25.477l-25.815 119.367zM597.75 44.658c0 15.401-2.755 29.184-8.274 41.36s-13.056 21.35-22.64 27.555c-9.574 6.206-20.603 9.308-33.075 9.308-14.254 0-25.385-4.014-33.372-12.042s-11.99-19.169-11.99-33.433c0-14.428 2.754-27.689 8.273-39.803s13.117-21.4 22.804-27.884c9.687-6.482 20.89-9.718 33.587-9.718 14.203 0 25.201 3.922 33.004 11.755s11.684 18.811 11.684 32.901zm-46.787-23.594c-6.738 0-12.923 2.488-18.544 7.475s-10.035 11.827-13.24 20.531-4.803 18.156-4.803 28.334c0 7.997 1.854 14.04 5.561 18.125s8.93 6.123 15.667 6.123 12.882-2.365 18.422-7.107c5.54-4.73 9.871-11.428 12.995-20.08s4.68-18.37 4.68-29.154c0-7.73-1.814-13.7-5.428-17.92-3.635-4.219-8.735-6.328-15.309-6.328zm160.502 100.19h-28.568L653.16 30.946h-.502l-.338 2.611c-1.782 11.756-3.625 22.262-5.509 31.518l-12.114 56.177h-22.98L637.532 1.885h29.83l28.405 87.931h.338c.665-4.137 1.751-10.045 3.256-17.715 1.505-7.68 6.513-31.079 15.043-70.216h22.876l-25.815 119.368zM169.052 200.5c0 13.117-4.608 23.42-13.834 30.904s-21.945 11.223-38.164 11.223h-7.024l-8.899 42.455H76.227l25.232-119.368h27.597c13.168 0 23.122 2.898 29.88 8.694 6.738 5.806 10.117 14.5 10.117 26.091zm-54.538 21.391h4.577c7.731 0 13.814-1.874 18.248-5.632s6.646-8.786 6.646-15.104c0-9.799-5.305-14.694-15.913-14.694h-6.04l-7.517 35.43zm62.874 63.202l25.477-119.367h24.904l-25.477 119.367h-24.904zm127.55-100.188c-7.189 0-13.65 2.202-19.395 6.615s-10.353 10.895-13.834 19.476c-3.48 8.571-5.223 17.787-5.223 27.638 0 9.093 1.863 15.841 5.591 20.245 3.728 4.413 9.677 6.615 17.838 6.615 7.946 0 17.142-2.099 27.597-6.288v21.228c-10.834 4.188-21.719 6.288-32.656 6.288-13.824 0-24.576-4.066-32.256-12.206s-11.51-19.66-11.51-34.58c0-14.265 2.826-27.393 8.49-39.395s13.23-21.115 22.701-27.35c9.472-6.237 20.357-9.35 32.656-9.35 6.8 0 12.841.615 18.125 1.833 5.284 1.23 10.937 3.471 16.978 6.738l-9.636 20.41c-5.765-3.217-10.537-5.336-14.285-6.37-3.748-1.025-7.475-1.547-11.182-1.547zm125.746 100.188h-27.597l-17.223-48.333-10.21 5.714-8.899 42.62h-24.904l25.231-119.369h24.986l-12.41 57.313 12.902-16.742 33.393-40.58h29.471l-48.496 57.148 23.757 62.228zm130.571-119.378l-16.414 77.24c-3.102 14.48-9.032 25.395-17.797 32.738-8.755 7.352-20.163 11.03-34.202 11.03-11.54 0-20.613-3.093-27.228-9.268s-9.923-14.55-9.923-25.108c0-3.922.41-7.68 1.23-11.264l16.004-75.356h24.904l-15.84 75.038c-.923 4.024-1.394 7.434-1.394 10.21 0 9.686 5.14 14.53 15.432 14.53 6.697 0 12.001-2.079 15.923-6.247s6.748-10.384 8.49-18.657l15.84-74.875h24.976zm99.798 34.785c0 13.117-4.608 23.42-13.834 30.904s-21.955 11.223-38.174 11.223h-7.024l-8.899 42.455h-24.904l25.231-119.368h27.597c13.168 0 23.132 2.898 29.88 8.694s10.128 14.5 10.128 26.091zm-54.538 21.391h4.577c7.731 0 13.814-1.874 18.247-5.632s6.656-8.786 6.656-15.104c0-9.799-5.304-14.694-15.923-14.694h-6.042l-7.516 35.43z"/></symbol>
<symbol viewBox="0 0 819.1900024414062 368.6300048828125" aria-labelledby="bfsi-payment-facture-title" id="si-payment-facture"><title id="bfsi-payment-facture-title">logo of facture</title><path d="M792.556 115.384l-88.75-88.75c-1.015-1.014-3.544-3.031-7.589-6.072v102.4h102.4c-3.02-4.034-5.048-6.553-6.062-7.577zM696.318 153.6c-11.428-1.208-14.07-3.328-20.48-10.24-6.298-5.796-10.537-12.144-10.24-20.48V0H50.503C36.771 0 24.933 6.277 14.97 16.251 4.976 24.985 0 36.823 0 51.784v268.534c0 14.961 4.976 26.829 14.96 35.533 9.973 9.994 21.81 12.779 35.532 12.779h718.204c13.712 0 25.55-2.785 35.533-12.779 9.974-8.704 14.961-20.572 14.961-35.533V153.601H696.32zM87.111 278.855l-10.199 47.196H51.199l26.05-119.368h68.63l-4.558 20.736H98.487l-6.656 30.782h39.874l-4.72 20.654H87.111zm124.272 47.197l-2.027-28.416h-39.875l-14.5 28.416h-26.983l64.584-119.859h31.447l12.39 119.859h-25.037zm138.015-92.263c-5.959-3.216-10.875-5.335-14.756-6.37s-7.73-1.546-11.55-1.546c-7.414 0-14.08 2.202-20.009 6.615s-10.71 10.895-14.305 19.476c-3.594 8.571-5.397 17.787-5.397 27.638 0 9.093 1.935 15.841 5.786 20.245 3.85 4.413 9.974 6.615 18.411 6.615 8.202 0 17.705-2.099 28.498-6.288v21.228c-11.182 4.178-22.425 6.277-33.72 6.277-14.275 0-25.376-4.065-33.3-12.206s-11.89-19.661-11.89-34.58c0-14.264 2.918-27.392 8.765-39.394s13.66-21.115 23.44-27.351 21.022-9.349 33.731-9.349c7.024 0 13.261.615 18.72 1.833 5.446 1.229 11.294 3.471 17.54 6.738l-9.964 20.418zm72.591-6.041l-21.412 98.304h-25.711l21.412-98.304h-29.675l4.64-21.063h85.155l-4.639 21.063h-29.768zm126.044 56.166c-3.205 14.48-9.328 25.395-18.38 32.738s-20.819 11.029-35.319 11.029c-11.919 0-21.279-3.092-28.099-9.267-6.83-6.174-10.26-14.551-10.26-25.108 0-3.922.42-7.68 1.27-11.264l16.528-75.356h25.712l-16.354 75.038c-.952 4.024-1.433 7.434-1.433 10.209 0 9.687 5.314 14.531 15.933 14.531 6.912 0 12.39-2.079 16.435-6.247s6.973-10.384 8.765-18.657l16.354-74.875h25.794l-16.947 77.23zm111.033 42.138H631.08l-17.449-45.803h-10.035l-10.035 45.803h-25.712L593.9 206.685h30.27c13.321 0 23.326 2.775 30.013 8.325s10.035 13.691 10.035 24.412c0 8.601-2.335 15.985-6.994 22.169-4.669 6.174-11.387 10.762-20.153 13.762l21.995 50.698zm104.376-98.632H720.28l-5.653 26.204h40.212L750.2 274.36h-40.212l-6.748 30.782h43.172l-4.557 20.9H672.97l26.051-119.368h68.976l-4.557 20.746zm-558.377-.246v-2.939c-2.478 6.533-5.54 13.445-9.185 20.736l-15.85 31.437h28.077l-2.192-28.58a257.453 257.453 0 0 1-.85-20.654zm416.318.246h-6.236l-7.086 32.256h6.574c7.362 0 13.097-1.557 17.203-4.659s6.154-7.834 6.154-14.203c0-4.465-1.32-7.813-3.994-10.046-2.663-2.232-6.88-3.348-12.615-3.348z"/></symbol>
<symbol viewBox="0 0 437.9849853515625 511.99993896484375" aria-labelledby="btsi-payment-invoice-sign-title" id="si-payment-invoice-sign"><title id="btsi-payment-invoice-sign-title">logo of invoice-sign</title><path d="M255.99 155.003c0 8.673 2.663 15.35 7.997 19.999 5.335 5.346 11.663 7.998 18.995 7.998h155.003v301.998c0 7.997-2.673 14.346-7.997 18.995-5.335 5.356-11.663 8.007-18.995 8.007h-384c-7.342 0-13.67-2.652-18.995-7.997C2.663 499.344 0 493.005 0 485.008V27.003c0-7.998 2.663-14.326 7.998-18.995C13.323 2.673 19.651 0 26.993 0H255.99v155.003zm36.004-9.001V10.998c5.335 4.004 8.663 6.666 10.005 7.998l117.002 117.002c1.331 1.341 4.004 4.67 7.997 10.005H291.994z"/></symbol>
  </defs>
</svg>
